<mxfile host="app.diagrams.net" modified="2024-03-04T23:48:07.165Z" agent="Mozilla/5.0 (Windows NT 10.0; Win64; x64) AppleWebKit/537.36 (KHTML, like Gecko) Chrome/122.0.0.0 Safari/537.36" etag="mkRiiKN9Qe3e24JxY8Mm" version="23.1.5" type="device">
  <diagram id="C5RBs43oDa-KdzZeNtuy" name="Page-1">
    <mxGraphModel dx="989" dy="570" grid="1" gridSize="10" guides="1" tooltips="1" connect="1" arrows="1" fold="1" page="1" pageScale="1" pageWidth="827" pageHeight="1169" math="0" shadow="0">
      <root>
        <mxCell id="WIyWlLk6GJQsqaUBKTNV-0" />
        <mxCell id="WIyWlLk6GJQsqaUBKTNV-1" parent="WIyWlLk6GJQsqaUBKTNV-0" />
        <mxCell id="OEn_OylxVQoGn8vpEVn8-4" value="Нет" style="edgeStyle=orthogonalEdgeStyle;rounded=0;orthogonalLoop=1;jettySize=auto;html=1;entryX=0;entryY=0.5;entryDx=0;entryDy=0;" edge="1" parent="WIyWlLk6GJQsqaUBKTNV-1" source="WIyWlLk6GJQsqaUBKTNV-6" target="OEn_OylxVQoGn8vpEVn8-2">
          <mxGeometry relative="1" as="geometry" />
        </mxCell>
        <mxCell id="OEn_OylxVQoGn8vpEVn8-6" value="Да" style="edgeStyle=orthogonalEdgeStyle;rounded=0;orthogonalLoop=1;jettySize=auto;html=1;entryX=0.5;entryY=0;entryDx=0;entryDy=0;" edge="1" parent="WIyWlLk6GJQsqaUBKTNV-1" source="WIyWlLk6GJQsqaUBKTNV-6" target="OEn_OylxVQoGn8vpEVn8-1">
          <mxGeometry relative="1" as="geometry" />
        </mxCell>
        <mxCell id="WIyWlLk6GJQsqaUBKTNV-6" value="Есть корни на промежутке?" style="rhombus;whiteSpace=wrap;html=1;shadow=0;fontFamily=Helvetica;fontSize=12;align=center;strokeWidth=1;spacing=6;spacingTop=-4;" parent="WIyWlLk6GJQsqaUBKTNV-1" vertex="1">
          <mxGeometry x="165" y="120" width="130" height="80" as="geometry" />
        </mxCell>
        <mxCell id="OEn_OylxVQoGn8vpEVn8-3" style="edgeStyle=orthogonalEdgeStyle;rounded=0;orthogonalLoop=1;jettySize=auto;html=1;" edge="1" parent="WIyWlLk6GJQsqaUBKTNV-1" source="OEn_OylxVQoGn8vpEVn8-0" target="WIyWlLk6GJQsqaUBKTNV-6">
          <mxGeometry relative="1" as="geometry" />
        </mxCell>
        <mxCell id="OEn_OylxVQoGn8vpEVn8-0" value="Начало" style="ellipse;whiteSpace=wrap;html=1;" vertex="1" parent="WIyWlLk6GJQsqaUBKTNV-1">
          <mxGeometry x="170" y="30" width="120" height="50" as="geometry" />
        </mxCell>
        <mxCell id="OEn_OylxVQoGn8vpEVn8-8" style="edgeStyle=orthogonalEdgeStyle;rounded=0;orthogonalLoop=1;jettySize=auto;html=1;entryX=0.5;entryY=0;entryDx=0;entryDy=0;" edge="1" parent="WIyWlLk6GJQsqaUBKTNV-1" source="OEn_OylxVQoGn8vpEVn8-1" target="OEn_OylxVQoGn8vpEVn8-7">
          <mxGeometry relative="1" as="geometry" />
        </mxCell>
        <mxCell id="OEn_OylxVQoGn8vpEVn8-1" value="x = (a+b)/2" style="rounded=1;whiteSpace=wrap;html=1;fontSize=12;glass=0;strokeWidth=1;shadow=0;" vertex="1" parent="WIyWlLk6GJQsqaUBKTNV-1">
          <mxGeometry x="170" y="240" width="120" height="40" as="geometry" />
        </mxCell>
        <mxCell id="OEn_OylxVQoGn8vpEVn8-2" value="Конец" style="ellipse;whiteSpace=wrap;html=1;" vertex="1" parent="WIyWlLk6GJQsqaUBKTNV-1">
          <mxGeometry x="354" y="135" width="120" height="50" as="geometry" />
        </mxCell>
        <mxCell id="OEn_OylxVQoGn8vpEVn8-11" value="Да" style="edgeStyle=orthogonalEdgeStyle;rounded=0;orthogonalLoop=1;jettySize=auto;html=1;entryX=0;entryY=0.5;entryDx=0;entryDy=0;" edge="1" parent="WIyWlLk6GJQsqaUBKTNV-1" source="OEn_OylxVQoGn8vpEVn8-7" target="OEn_OylxVQoGn8vpEVn8-10">
          <mxGeometry relative="1" as="geometry" />
        </mxCell>
        <mxCell id="OEn_OylxVQoGn8vpEVn8-13" value="Нет" style="edgeStyle=orthogonalEdgeStyle;rounded=0;orthogonalLoop=1;jettySize=auto;html=1;entryX=0.5;entryY=0;entryDx=0;entryDy=0;" edge="1" parent="WIyWlLk6GJQsqaUBKTNV-1" source="OEn_OylxVQoGn8vpEVn8-7" target="OEn_OylxVQoGn8vpEVn8-12">
          <mxGeometry relative="1" as="geometry" />
        </mxCell>
        <mxCell id="OEn_OylxVQoGn8vpEVn8-7" value="f(x) &amp;lt; погрешность?" style="rhombus;whiteSpace=wrap;html=1;shadow=0;fontFamily=Helvetica;fontSize=12;align=center;strokeWidth=1;spacing=6;spacingTop=-4;" vertex="1" parent="WIyWlLk6GJQsqaUBKTNV-1">
          <mxGeometry x="165" y="310" width="130" height="80" as="geometry" />
        </mxCell>
        <mxCell id="OEn_OylxVQoGn8vpEVn8-10" value="Результат" style="ellipse;whiteSpace=wrap;html=1;" vertex="1" parent="WIyWlLk6GJQsqaUBKTNV-1">
          <mxGeometry x="354" y="325" width="120" height="50" as="geometry" />
        </mxCell>
        <mxCell id="OEn_OylxVQoGn8vpEVn8-19" value="Нет" style="edgeStyle=orthogonalEdgeStyle;rounded=0;orthogonalLoop=1;jettySize=auto;html=1;" edge="1" parent="WIyWlLk6GJQsqaUBKTNV-1" source="OEn_OylxVQoGn8vpEVn8-12" target="OEn_OylxVQoGn8vpEVn8-18">
          <mxGeometry relative="1" as="geometry" />
        </mxCell>
        <mxCell id="OEn_OylxVQoGn8vpEVn8-20" value="Да" style="edgeStyle=orthogonalEdgeStyle;rounded=0;orthogonalLoop=1;jettySize=auto;html=1;entryX=0.5;entryY=0;entryDx=0;entryDy=0;" edge="1" parent="WIyWlLk6GJQsqaUBKTNV-1" source="OEn_OylxVQoGn8vpEVn8-12" target="OEn_OylxVQoGn8vpEVn8-15">
          <mxGeometry relative="1" as="geometry" />
        </mxCell>
        <mxCell id="OEn_OylxVQoGn8vpEVn8-12" value="Есть решение на промежутке (a; x)?" style="rhombus;whiteSpace=wrap;html=1;shadow=0;fontFamily=Helvetica;fontSize=12;align=center;strokeWidth=1;spacing=6;spacingTop=-4;" vertex="1" parent="WIyWlLk6GJQsqaUBKTNV-1">
          <mxGeometry x="165" y="440" width="130" height="80" as="geometry" />
        </mxCell>
        <mxCell id="OEn_OylxVQoGn8vpEVn8-25" style="edgeStyle=orthogonalEdgeStyle;rounded=0;orthogonalLoop=1;jettySize=auto;html=1;entryX=0;entryY=0.5;entryDx=0;entryDy=0;" edge="1" parent="WIyWlLk6GJQsqaUBKTNV-1" source="OEn_OylxVQoGn8vpEVn8-15" target="OEn_OylxVQoGn8vpEVn8-22">
          <mxGeometry relative="1" as="geometry" />
        </mxCell>
        <mxCell id="OEn_OylxVQoGn8vpEVn8-15" value="Поменять промежуток на (a; x)" style="rounded=1;whiteSpace=wrap;html=1;fontSize=12;glass=0;strokeWidth=1;shadow=0;" vertex="1" parent="WIyWlLk6GJQsqaUBKTNV-1">
          <mxGeometry x="170" y="560" width="120" height="40" as="geometry" />
        </mxCell>
        <mxCell id="OEn_OylxVQoGn8vpEVn8-24" style="edgeStyle=orthogonalEdgeStyle;rounded=0;orthogonalLoop=1;jettySize=auto;html=1;entryX=0.5;entryY=0;entryDx=0;entryDy=0;" edge="1" parent="WIyWlLk6GJQsqaUBKTNV-1" source="OEn_OylxVQoGn8vpEVn8-18" target="OEn_OylxVQoGn8vpEVn8-22">
          <mxGeometry relative="1" as="geometry" />
        </mxCell>
        <mxCell id="OEn_OylxVQoGn8vpEVn8-18" value="Поменять промежуток на (x; b)" style="rounded=1;whiteSpace=wrap;html=1;fontSize=12;glass=0;strokeWidth=1;shadow=0;" vertex="1" parent="WIyWlLk6GJQsqaUBKTNV-1">
          <mxGeometry x="354" y="460" width="120" height="40" as="geometry" />
        </mxCell>
        <mxCell id="OEn_OylxVQoGn8vpEVn8-23" value="Да" style="edgeStyle=orthogonalEdgeStyle;rounded=0;orthogonalLoop=1;jettySize=auto;html=1;entryX=1;entryY=0.5;entryDx=0;entryDy=0;" edge="1" parent="WIyWlLk6GJQsqaUBKTNV-1" source="OEn_OylxVQoGn8vpEVn8-22" target="OEn_OylxVQoGn8vpEVn8-10">
          <mxGeometry relative="1" as="geometry">
            <Array as="points">
              <mxPoint x="494" y="580" />
              <mxPoint x="494" y="350" />
            </Array>
          </mxGeometry>
        </mxCell>
        <mxCell id="OEn_OylxVQoGn8vpEVn8-26" value="Нет" style="edgeStyle=orthogonalEdgeStyle;rounded=0;orthogonalLoop=1;jettySize=auto;html=1;entryX=0;entryY=0.5;entryDx=0;entryDy=0;" edge="1" parent="WIyWlLk6GJQsqaUBKTNV-1" source="OEn_OylxVQoGn8vpEVn8-22" target="OEn_OylxVQoGn8vpEVn8-1">
          <mxGeometry relative="1" as="geometry">
            <Array as="points">
              <mxPoint x="414" y="630" />
              <mxPoint x="150" y="630" />
              <mxPoint x="150" y="260" />
            </Array>
          </mxGeometry>
        </mxCell>
        <mxCell id="OEn_OylxVQoGn8vpEVn8-22" value="Промежуток меньше погрешности?" style="rhombus;whiteSpace=wrap;html=1;shadow=0;fontFamily=Helvetica;fontSize=12;align=center;strokeWidth=1;spacing=6;spacingTop=-4;" vertex="1" parent="WIyWlLk6GJQsqaUBKTNV-1">
          <mxGeometry x="349" y="540" width="130" height="80" as="geometry" />
        </mxCell>
      </root>
    </mxGraphModel>
  </diagram>
</mxfile>
